<svg width="352" height="320" viewBox="0 0 352 320" fill="none" xmlns="http://www.w3.org/2000/svg">
  <defs>
    <linearGradient id="pt_grad" x1="0%" y1="0%" x2="100%" y2="100%">
      <stop offset="0%" style="stop-color:#66023C;stop-opacity:1" />
      <stop offset="50%" style="stop-color:#8A004B;stop-opacity:1" />
      <stop offset="100%" style="stop-color:#D4145A;stop-opacity:1" />
    </linearGradient>
  </defs>
  <path d="M 40 0 L 170 0 A 40 40 0 0 1 170 80 L 40 80 A 40 40 0 0 1 40 0 Z" fill="url(#pt_grad)"/>
  <path d="M 40 120 L 312 120 A 40 40 0 0 1 312 200 L 40 200 A 40 40 0 0 1 40 120 Z" fill="url(#pt_grad)"/>
  <path d="M 40 240 L 230 240 A 40 40 0 0 1 230 320 L 40 320 A 40 40 0 0 1 40 240 Z" fill="url(#pt_grad)"/>
</svg>